<svg xmlns="http://www.w3.org/2000/svg" viewBox="0 0 160 190" role="img" aria-label="팔 운동 3D 데모">
  <defs>
    <radialGradient id="bg" cx="50%" cy="14%" r="78%"><stop offset="0" stop-color="#26373a"/><stop offset="1" stop-color="#101115"/></radialGradient>
    <linearGradient id="body" x1="36" x2="118" y1="18" y2="168"><stop offset="0" stop-color="#f5f6f7"/><stop offset=".43" stop-color="#888e96"/><stop offset="1" stop-color="#33373d"/></linearGradient>
    <linearGradient id="muscle" x1="0" x2="1"><stop offset="0" stop-color="#2af2d0"/><stop offset="1" stop-color="#0e9f8d"/></linearGradient>
    <filter id="shadow"><feDropShadow dx="0" dy="10" stdDeviation="6" flood-color="#000" flood-opacity=".42"/></filter>
  </defs>
  <rect width="160" height="190" fill="url(#bg)"/>
  <ellipse cx="80" cy="168" rx="40" ry="9" fill="#050607" opacity=".45"/>
  <g filter="url(#shadow)">
    <circle cx="80" cy="28" r="12" fill="url(#body)"/>
    <path d="M66 44c-8 13-10 35-5 52 5 17 33 17 38 0 5-17 3-39-5-52-8 5-20 5-28 0Z" fill="url(#body)"/>
    <path d="M63 55 35 101l10 7 24-38Zm35 0 28 46-10 7-24-38Z" fill="url(#body)"/>
    <path d="M66 101 53 157h13l13-50Zm28 0 13 56H94l-13-50Z" fill="url(#body)"/>
  </g>
  <g fill="url(#muscle)">
    <ellipse cx="51" cy="84" rx="8" ry="20" transform="rotate(31 51 84)"/>
    <ellipse cx="109" cy="84" rx="8" ry="20" transform="rotate(-31 109 84)"/>
    <animateTransform attributeName="transform" type="rotate" values="0 80 75;4 80 75;0 80 75" dur="1.1s" repeatCount="indefinite"/>
  </g>
  <path d="M36 105h-15M124 105h15" stroke="#25e6c8" stroke-width="4" stroke-linecap="round">
    <animateTransform attributeName="transform" type="translate" values="0 0;0 -12;0 0" dur="1.1s" repeatCount="indefinite"/>
  </path>
</svg>
